<svg width="12" height="11" fill="none" xmlns="http://www.w3.org/2000/svg"><path d="M11.263 3.761l-.82-2.508a1.829 1.829 0 00-.655-.907A1.775 1.775 0 008.735 0h-5.47c-.378 0-.746.12-1.053.346a1.828 1.828 0 00-.654.907L.737 3.761a1.21 1.21 0 00-.536.45A1.249 1.249 0 000 4.89v3.055c0 .451.242.841.6 1.053v1.392c0 .162.063.317.176.432A.595.595 0 001.2 11h.6a.59.59 0 00.424-.179.617.617 0 00.176-.432V9.167h7.2v1.222c0 .162.063.317.176.432A.595.595 0 0010.2 11h.6a.59.59 0 00.424-.179.617.617 0 00.176-.432V8.997a1.214 1.214 0 00.6-1.053V4.89c0-.241-.07-.477-.201-.677a1.205 1.205 0 00-.536-.45zM3.265 1.222h5.47a.6.6 0 01.57.418l.663 2.027H2.032l.663-2.027a.61.61 0 01.219-.302.593.593 0 01.35-.116zM2.1 7.333a.886.886 0 01-.637-.268.918.918 0 01-.263-.649.932.932 0 01.264-.648.9.9 0 01.637-.269.89.89 0 01.636.27.926.926 0 010 1.296.892.892 0 01-.637.268zm7.8 0a.886.886 0 01-.637-.268A.918.918 0 019 6.416a.932.932 0 01.264-.648.9.9 0 01.637-.269.89.89 0 01.636.27.926.926 0 010 1.296.892.892 0 01-.637.268z" fill="#555"/></svg>