<svg width="12" height="16" fill="none" xmlns="http://www.w3.org/2000/svg"><path d="M6 2.4c-.678 0-1.341.188-1.905.54a3.259 3.259 0 00-1.263 1.435 3.002 3.002 0 00-.195 1.85c.133.62.46 1.19.939 1.638a3.51 3.51 0 001.755.876c.665.123 1.355.06 1.981-.183a3.389 3.389 0 001.539-1.178A3.05 3.05 0 009.429 5.6c0-.849-.362-1.663-1.005-2.263A3.557 3.557 0 006 2.4zm0 5.283c-.441 0-.873-.122-1.24-.351a2.121 2.121 0 01-.822-.935c-.169-.38-.213-.8-.127-1.203a2.05 2.05 0 01.61-1.067c.313-.291.71-.49 1.144-.57a2.38 2.38 0 011.29.119c.407.157.755.424 1 .767.246.342.377.745.377 1.157a2.016 2.016 0 01-.656 1.47A2.316 2.316 0 016 7.678v.005z" fill="#1E1E1E"/><path d="M5.997 0a6.116 6.116 0 00-4.23 1.688A5.692 5.692 0 000 5.762c0 2.294 1.334 4.215 2.311 5.615l.179.256a49.166 49.166 0 003.126 3.93l.387.437.386-.437a49.285 49.285 0 003.126-3.93l.179-.26C10.666 9.972 12 8.055 12 5.762a5.692 5.692 0 00-1.769-4.077A6.116 6.116 0 005.997 0zm2.846 10.807l-.183.26a40.125 40.125 0 01-2.663 3.39c-.6-.702-1.787-2.122-2.662-3.39l-.178-.26c-.902-1.296-2.139-3.07-2.139-5.064 0-.631.129-1.256.38-1.839a4.797 4.797 0 011.079-1.559 4.995 4.995 0 011.615-1.041 5.137 5.137 0 013.81 0 4.995 4.995 0 011.616 1.041c.463.447.83.976 1.08 1.56.25.582.379 1.207.379 1.838 0 2.014-1.232 3.787-2.134 5.064z" fill="#1E1E1E"/></svg>