<svg width="10" height="12" fill="none" xmlns="http://www.w3.org/2000/svg"><path d="M.411 10.511l.568 1.283c.879-.274 2.31-.66 2.74-.66.622 0 1.087.145 1.623.312.577.18 1.23.384 2.095.384.875 0 2.289-.641 2.563-.769l-.666-1.245c-.536.25-1.51.622-1.897.622-.624 0-1.088-.145-1.625-.312-.576-.18-1.23-.384-2.094-.384-.17 0-.39.026-.637.07.416-.8.637-1.767.637-2.853H5.95V5.567H3.44c-.031-.074-.062-.15-.093-.22-.192-.44-.372-.855-.372-1.868 0-.952.387-2.087 2.23-2.087 1.655 0 2.247 1.55 2.27 1.611l1.41-.44C8.848 2.459 7.942 0 5.205 0c-2.74 0-3.717 1.797-3.717 3.48 0 1.037.174 1.635.356 2.087H0v1.392h2.231c0 1.717-.663 3.012-1.82 3.552z" fill="#222"/></svg>