<svg width="11" height="16" fill="none" xmlns="http://www.w3.org/2000/svg"><path d="M6.188 10.622a5.548 5.548 0 003.549-1.89 5.226 5.226 0 001.252-3.734 5.266 5.266 0 00-1.724-3.553A5.595 5.595 0 005.5 0C4.1 0 2.754.517 1.735 1.445A5.266 5.266 0 00.01 4.998 5.226 5.226 0 001.263 8.73a5.548 5.548 0 003.55 1.89V12H1.374v1.333h3.438V16h1.375v-2.666h3.437v-1.333H6.187v-1.38zM1.375 5.337c0-.791.242-1.564.695-2.222a4.1 4.1 0 011.851-1.473 4.246 4.246 0 012.384-.227c.8.154 1.535.535 2.112 1.094.577.56.97 1.272 1.129 2.047.159.776.077 1.58-.235 2.31a4.028 4.028 0 01-1.52 1.795 4.218 4.218 0 01-2.291.674 4.197 4.197 0 01-2.915-1.172 3.942 3.942 0 01-1.21-2.826z" fill="#555"/></svg>