<svg width="20" height="20" fill="none" xmlns="http://www.w3.org/2000/svg"><path d="M9.997 4.869A5.124 5.124 0 004.867 10a5.124 5.124 0 005.13 5.131A5.124 5.124 0 0015.128 10a5.124 5.124 0 00-5.13-5.131zm0 8.466A3.342 3.342 0 016.663 10a3.342 3.342 0 013.334-3.335A3.342 3.342 0 0113.332 10a3.342 3.342 0 01-3.335 3.335zm5.341-9.872c-.663 0-1.198.535-1.198 1.198 0 .663.535 1.199 1.198 1.199a1.195 1.195 0 001.108-1.657 1.198 1.198 0 00-1.108-.74zM19.998 10c0-1.38.013-2.75-.064-4.128-.078-1.6-.443-3.022-1.614-4.193C17.147.506 15.73.143 14.127.066 12.747-.012 11.378 0 10 0 8.619 0 7.25-.012 5.872.066 4.271.143 2.85.509 1.68 1.679.506 2.853.143 4.271.066 5.872-.012 7.253 0 8.622 0 10c0 1.378-.013 2.75.065 4.128.077 1.6.443 3.022 1.613 4.193 1.174 1.173 2.592 1.536 4.193 1.613C7.253 20.012 8.622 20 10 20c1.38 0 2.75.013 4.127-.065 1.602-.077 3.022-.443 4.193-1.613 1.174-1.174 1.536-2.592 1.614-4.193.08-1.379.065-2.747.065-4.128zm-2.2 5.899a3.179 3.179 0 01-.756 1.146c-.353.352-.69.573-1.146.755-1.316.523-4.44.405-5.899.405-1.458 0-4.585.118-5.901-.402a3.18 3.18 0 01-1.146-.756 3.201 3.201 0 01-.755-1.146c-.52-1.318-.403-4.442-.403-5.901 0-1.458-.118-4.586.403-5.901a3.16 3.16 0 01.755-1.146 3.24 3.24 0 011.146-.756c1.316-.52 4.443-.403 5.901-.403 1.459 0 4.586-.117 5.902.403a3.18 3.18 0 011.145.756 3.2 3.2 0 01.756 1.146c.52 1.315.403 4.443.403 5.901 0 1.459.117 4.583-.406 5.899z" fill="#fff"/></svg>