<svg width="88" height="40" fill="none" xmlns="http://www.w3.org/2000/svg"><path d="M20.767.383a3.92 3.92 0 00-2.352.786 3.994 3.994 0 00-1.425 2.05l-4.388 14.686h-.151L8.097 3.229a3.999 3.999 0 00-1.426-2.056 3.927 3.927 0 00-2.356-.79h-.362a3.906 3.906 0 00-1.818.446A3.96 3.96 0 00.725 2.07 4.032 4.032 0 00.23 5.71l5.712 16.286a6.89 6.89 0 002.495 3.332 6.77 6.77 0 003.94 1.264 6.771 6.771 0 003.938-1.269 6.89 6.89 0 002.491-3.335l5.687-16.283A4.023 4.023 0 0024 2.065 3.952 3.952 0 0022.587.824a3.904 3.904 0 00-1.82-.441zM31.91 0h-.43c-2.18-.011-3.959 1.816-3.97 4.08l-.1 18.537c-.014 2.392 1.842 4.343 4.141 4.354h.018c2.291 0 4.154-1.925 4.162-4.308l.1-18.534C35.843 1.864 34.084.015 31.908 0zm31.915 4.369a4.019 4.019 0 00-.964-2.605 3.914 3.914 0 00-5.102-.758 3.984 3.984 0 00-1.663 2.215L51.71 17.905h-.152L47.203 3.229a3.999 3.999 0 00-1.427-2.054 3.927 3.927 0 00-2.357-.79h-.366c-.631 0-1.253.154-1.814.448a3.96 3.96 0 00-1.407 1.242 4.016 4.016 0 00-.494 3.635l5.71 16.287a6.89 6.89 0 002.494 3.332 6.771 6.771 0 003.94 1.264 6.771 6.771 0 003.939-1.269 6.89 6.89 0 002.491-3.335l5.683-16.283c.152-.429.23-.881.23-1.337zm23.926 16.716L81.94 4.982a6.984 6.984 0 00-2.533-3.329 6.865 6.865 0 00-3.963-1.26c-1.417 0-2.8.44-3.962 1.26a6.984 6.984 0 00-2.533 3.33L63.062 21.27a4.07 4.07 0 00-.24 1.361c-.006.956.33 1.882.947 2.607a3.885 3.885 0 005.09.75 3.959 3.959 0 001.644-2.225l.252-.87h9.081l.23.765a4.11 4.11 0 00.764 1.425 4.06 4.06 0 001.252 1.014 4.02 4.02 0 004.527-.556c.406-.36.738-.797.975-1.288a4.136 4.136 0 00.175-3.174l-.008.005zm-7.219-8.07c-.1.152-1.387 1.734-2.648 3.267-.207.255-.414.5-.61.743a1788.35 1788.35 0 01-1.83 2.228l-1.828-2.228-.829-1.012c-1.182-1.443-2.328-2.856-2.424-2.999-1.298-1.96.24-4.59 2.568-4.38.023 0 .044 0 .068.01a2.378 2.378 0 011.68.94c.562.714.721 1.603.757 1.85 0 .041.007.064.007.064s0-.023.008-.063a4.228 4.228 0 01.566-1.578c.172-.285.395-.536.657-.74a2.413 2.413 0 011.216-.474c.021 0 .045 0 .067-.009 2.324-.213 3.867 2.423 2.569 4.38" fill="#DD0A6A"/><path d="M25.259 33.929a1.522 1.522 0 00-1.01.337 1.797 1.797 0 00-.482.562h-.017a1.342 1.342 0 00-.488-.654 1.32 1.32 0 00-.773-.245 1.54 1.54 0 00-.826.207 1.57 1.57 0 00-.593.617h-.023l-.04-.72h-.675c.023.347.034.722.034 1.137v3.01h.757v-2.454c0-.13.022-.26.066-.383.14-.357.504-.78 1.038-.78.589 0 .948.473.948 1.2v2.412h.757v-2.528a1.101 1.101 0 01.46-.88c.175-.125.382-.194.596-.2.63 0 .996.459.996 1.35v2.26h.757V35.84c0-1.57-.931-1.912-1.477-1.912m8.459 3.242v-1.465c0-.797-.291-1.772-1.69-1.772a2.805 2.805 0 00-1.486.395l.18.51c.36-.224.775-.341 1.199-.34.947-.005 1.026.698 1.026.961v.073c-1.803-.018-2.704.566-2.704 1.56 0 .555.425 1.192 1.347 1.192a1.733 1.733 0 001.399-.655h.023l.071.551h.702a6.438 6.438 0 01-.067-1.01zm-.757-.417a.73.73 0 01-.042.239 1.184 1.184 0 01-.457.537 1.174 1.174 0 01-.678.182c-.42 0-.756-.24-.756-.72 0-.764.968-.941 1.933-.917v.68zm6.062-.965c-.582-.187-.87-.34-.87-.705 0-.327.26-.583.73-.583.331.002.655.093.94.264l.19-.565a2.175 2.175 0 00-1.098-.27c-.963 0-1.513.574-1.513 1.24 0 .51.368.928 1.177 1.174.59.183.84.362.84.743 0 .338-.251.621-.86.621a2.266 2.266 0 01-1.097-.321l-.188.592c.39.206.823.311 1.262.307 1.067 0 1.633-.555 1.633-1.256 0-.638-.367-.988-1.151-1.24m6.215-.001c-.583-.187-.87-.34-.87-.705 0-.327.253-.583.73-.583.33.002.655.093.94.264l.189-.565a2.17 2.17 0 00-1.096-.27c-.965 0-1.514.574-1.514 1.24 0 .51.367.928 1.177 1.174.589.183.84.362.84.743 0 .338-.252.621-.86.621a2.266 2.266 0 01-1.098-.321l-.187.592c.389.205.822.311 1.26.307 1.069 0 1.64-.555 1.64-1.256 0-.638-.368-.988-1.151-1.24zm7.876 1.382v-1.465c0-.797-.29-1.772-1.688-1.772a2.806 2.806 0 00-1.486.395l.179.51a2.26 2.26 0 011.2-.34c.946-.005 1.026.698 1.026.961v.073c-1.804-.018-2.705.566-2.705 1.56 0 .555.426 1.192 1.347 1.192a1.737 1.737 0 001.4-.655h.022l.072.551h.701a6.427 6.427 0 01-.068-1.01zm-.756-.417a.73.73 0 01-.042.239 1.19 1.19 0 01-.457.537 1.174 1.174 0 01-.678.182c-.423 0-.757-.24-.757-.72 0-.764.969-.941 1.934-.917v.68zm7.802-2.72l-.03.672h-.017c-.202-.382-.647-.776-1.452-.776-1.06 0-2.04.848-2.04 2.214 0 1.126.81 2.023 1.93 2.023.73 0 1.225-.353 1.479-.765h.016v.472c0 1.088-.638 1.515-1.482 1.515a2.51 2.51 0 01-1.356-.383l-.198.6c.371.255.98.389 1.524.389.543 0 1.175-.113 1.63-.518.433-.383.645-1.013.645-1.93v-2.431c0-.46.011-.787.034-1.082h-.682zm-.125 2.296c0 .14-.022.278-.066.41a1.264 1.264 0 01-1.188.839c-.936 0-1.378-.75-1.378-1.478 0-.979.595-1.576 1.387-1.576a1.21 1.21 0 01.743.227c.216.155.377.378.456.634.033.113.048.23.046.348v.596zm8.307-.407c0-.706-.354-1.993-1.859-1.993-1.325 0-2.114 1.03-2.114 2.257s.842 2.098 2.195 2.098A3.748 3.748 0 0068.086 38l-.137-.554c-.41.166-.848.245-1.29.232-.84 0-1.529-.472-1.548-1.403h3.202c.023-.114.033-.23.03-.346v-.008zm-3.22-.217c.069-.51.43-1.228 1.302-1.228 1.01 0 1.175.871 1.17 1.228H65.12z" fill="#E24795"/></svg>