<svg width="9" height="13" fill="none" xmlns="http://www.w3.org/2000/svg"><path d="M4.5 2.63c-.509 0-1.006.14-1.429.404a2.444 2.444 0 00-.947 1.078 2.252 2.252 0 00-.146 1.386c.1.466.344.893.704 1.229.36.336.818.564 1.316.657a2.742 2.742 0 001.486-.137c.47-.181.872-.489 1.154-.884a2.28 2.28 0 00.433-1.333c0-.637-.27-1.247-.753-1.697A2.668 2.668 0 004.5 2.63zm0 3.962a1.76 1.76 0 01-.93-.263 1.59 1.59 0 01-.616-.701 1.47 1.47 0 01-.096-.903c.065-.303.224-.581.458-.8.234-.218.533-.367.857-.427.325-.06.662-.03.968.089.305.118.567.318.75.575.185.257.283.559.283.868a1.51 1.51 0 01-.492 1.102 1.737 1.737 0 01-1.182.456v.004z" fill="#222"/><path d="M4.498.83a4.587 4.587 0 00-3.173 1.266A4.27 4.27 0 000 5.152c0 1.72 1 3.16 1.734 4.211l.133.192a36.87 36.87 0 002.345 2.947l.29.328.29-.328a36.954 36.954 0 002.345-2.947l.133-.196C8 8.31 9 6.872 9 5.152a4.27 4.27 0 00-1.327-3.058A4.587 4.587 0 004.498.83zm2.135 8.106l-.138.195a30.1 30.1 0 01-1.997 2.542c-.45-.527-1.34-1.592-1.997-2.542l-.134-.195C1.692 7.963.764 6.633.764 5.137c0-.473.096-.942.284-1.379.188-.437.463-.834.81-1.169.346-.335.758-.6 1.211-.781a3.853 3.853 0 012.858 0c.453.181.865.446 1.212.781.346.335.622.732.81 1.17.187.436.284.905.284 1.378 0 1.51-.925 2.84-1.6 3.799z" fill="#222"/></svg>