<svg width="12" height="13" fill="none" xmlns="http://www.w3.org/2000/svg"><path d="M.523 1.907L2.121.305a1.03 1.03 0 011.464 0l1.72 1.724a1.04 1.04 0 010 1.471L3.961 4.85a6.103 6.103 0 001.296 1.916 6.103 6.103 0 001.908 1.303l1.344-1.35a1.03 1.03 0 011.464 0l1.722 1.723a1.04 1.04 0 010 1.472L10.1 11.515a1.793 1.793 0 01-1.552.501C6.562 11.688 4.591 10.627 3 9.032 1.41 7.434.354 5.457.024 3.462a1.797 1.797 0 01.5-1.555zm.564 1.377c.293 1.774 1.244 3.544 2.676 4.98 1.433 1.438 3.195 2.392 4.964 2.685a.704.704 0 00.612-.198l1.567-1.573L9.244 7.51 7.447 9.315l-.013.014-.324-.12A7.217 7.217 0 014.495 7.53a7.246 7.246 0 01-1.67-2.624l-.12-.325 1.811-1.816-1.662-1.669L1.287 2.67a.706.706 0 00-.2.614z" fill="#000"/></svg>