<svg width="14" height="16" fill="none" xmlns="http://www.w3.org/2000/svg"><path fill-rule="evenodd" clip-rule="evenodd" d="M11.377 8c.559-.07 1.037-.181 1.33-.357a2.656 2.656 0 001.179-1.62c.172-.68.08-1.404-.258-2.014a2.574 2.574 0 00-1.544-1.24 2.465 2.465 0 00-1.934.255c-.293.176-.625.552-.961 1.023.222-.54.368-1.028.368-1.38 0-.708-.27-1.386-.749-1.886C8.328.281 7.678 0 7 0c-.678 0-1.328.281-1.808.781s-.749 1.178-.749 1.886c0 .352.146.84.368 1.38-.336-.471-.668-.847-.961-1.023a2.465 2.465 0 00-1.934-.255 2.574 2.574 0 00-1.544 1.24 2.767 2.767 0 00-.258 2.015 2.66 2.66 0 001.18 1.619c.292.176.77.288 1.329.357-.559.07-1.037.181-1.33.357-.293.174-.55.407-.757.685a2.713 2.713 0 00-.447.935 2.777 2.777 0 00.254 2.032c.168.304.393.571.66.785.269.213.574.37.9.46a2.455 2.455 0 001.947-.278c.293-.176.625-.552.961-1.023-.222.54-.368 1.028-.368 1.38 0 .708.27 1.386.749 1.886.48.5 1.13.781 1.808.781.678 0 1.328-.281 1.808-.781s.749-1.178.749-1.886c0-.352-.146-.84-.368-1.38.336.471.668.847.961 1.023a2.455 2.455 0 001.947.278c.326-.09.631-.246.9-.46.267-.214.492-.48.66-.785a2.78 2.78 0 00.253-2.032 2.714 2.714 0 00-.446-.935 2.592 2.592 0 00-.757-.685c-.293-.176-.771-.288-1.33-.357zM8.278 2.667c0-.354-.134-.693-.374-.943s-.565-.39-.904-.39c-.34 0-.664.14-.904.39s-.374.589-.374.943c.012.093.032.184.057.274.05.175.128.392.234.644.212.504.506 1.078.814 1.631L7 5.523l.173-.307c.308-.553.6-1.127.814-1.63.106-.254.184-.47.234-.646a1.85 1.85 0 00.048-.205c.01-.044.01-.066.01-.068zm-6.814 2c-.17.306-.215.67-.127 1.011.087.342.302.633.595.81.083.035.169.063.256.085.171.043.39.08.652.111.525.06 1.148.081 1.763.08.115 0 .228 0 .34-.003a29.516 29.516 0 00-.167-.309 17.288 17.288 0 00-.949-1.55 5.581 5.581 0 00-.418-.534 1.921 1.921 0 00-.147-.147c-.032-.029-.049-.04-.051-.042a1.232 1.232 0 00-.97-.134 1.287 1.287 0 00-.777.622zm1.747 7.154c-.294.174-.641.22-.967.128a1.288 1.288 0 01-.772-.62 1.384 1.384 0 01-.13-1.008c.087-.34.3-.63.59-.809l.06-.027c.048-.017.112-.037.196-.058.171-.043.39-.08.652-.111.586-.06 1.174-.086 1.763-.08.115 0 .228 0 .34.003l-.167.309a17.411 17.411 0 01-.949 1.55 5.43 5.43 0 01-.418.534 1.926 1.926 0 01-.198.19zm5.067 1.512c0 .354-.134.693-.374.943s-.565.39-.904.39c-.34 0-.664-.14-.904-.39s-.374-.589-.374-.943a1.99 1.99 0 01.057-.274c.05-.175.128-.392.234-.644a17.36 17.36 0 01.814-1.631L7 10.477l.173.307c.308.553.6 1.127.814 1.63.106.254.184.47.234.646.026.09.045.18.057.273zm4.258-8.666c.17.306.215.67.127 1.011a1.328 1.328 0 01-.595.81 1.837 1.837 0 01-.256.085c-.171.043-.39.08-.652.111-.527.06-1.148.081-1.763.08-.115 0-.228 0-.34-.003l.167-.309c.307-.555.636-1.107.95-1.55.128-.187.267-.366.417-.534.059-.067.109-.115.146-.147.033-.029.051-.04.052-.042.294-.177.643-.225.97-.134.328.092.607.315.777.622zm-1.747 7.154c.294.174.641.22.967.128.326-.092.604-.315.772-.62.17-.305.215-.667.13-1.008a1.328 1.328 0 00-.59-.809c-.003 0-.02-.01-.06-.027a1.831 1.831 0 00-.196-.058 5.186 5.186 0 00-.652-.111 15.796 15.796 0 00-1.763-.08c-.115 0-.228 0-.34.003l.167.309a17.4 17.4 0 00.95 1.55c.155.223.296.4.417.534.062.068.128.131.198.19zM7 9.333c.34 0 .664-.14.904-.39s.374-.59.374-.943c0-.354-.134-.693-.374-.943s-.565-.39-.904-.39c-.34 0-.664.14-.904.39s-.374.59-.374.943c0 .354.134.693.374.943s.565.39.904.39z" fill="#555"/></svg>