<svg width="18" height="10" fill="none" xmlns="http://www.w3.org/2000/svg"><path d="M16.983.712c.116-.387 0-.671-.552-.671h-1.828c-.465 0-.677.246-.794.516 0 0-.929 2.265-2.246 3.735-.425.427-.619.562-.85.562-.116 0-.285-.135-.285-.522V.712c0-.465-.134-.671-.521-.671H7.035c-.29 0-.465.215-.465.42 0 .44.658.541.726 1.781v2.69c0 .59-.106.697-.34.697-.618 0-2.125-2.274-3.02-4.877-.173-.506-.35-.71-.816-.71H1.293C.771.042.667.287.667.557c0 .485.619 2.885 2.884 6.06 1.51 2.167 3.636 3.342 5.572 3.342 1.161 0 1.305-.26 1.305-.71V7.61c0-.522.11-.627.478-.627.27 0 .735.137 1.82 1.181 1.237 1.238 1.442 1.794 2.138 1.794h1.827c.522 0 .782-.26.632-.776-.164-.512-.755-1.258-1.54-2.14-.427-.504-1.065-1.045-1.259-1.316-.27-.35-.192-.504 0-.814.001.001 2.227-3.134 2.459-4.2z" fill="#fff"/></svg>