<svg width="4" height="8" viewBox="0 0 4 8" fill="none" xmlns="http://www.w3.org/2000/svg">
<path d="M0.56763 7.99897C0.435235 7.99923 0.306929 7.95283 0.204985 7.86783C0.147609 7.81997 0.10018 7.76118 0.0654164 7.69484C0.0306523 7.62851 0.00923571 7.55592 0.00239313 7.48124C-0.00444945 7.40657 0.00341656 7.33126 0.0255404 7.25965C0.0476643 7.18803 0.083611 7.12151 0.131323 7.0639L2.66984 4.00782L0.221984 0.946038C0.174916 0.887717 0.139767 0.820611 0.118557 0.748577C0.0973471 0.676542 0.0904943 0.601001 0.0983927 0.526293C0.106291 0.451585 0.128785 0.379185 0.164581 0.313253C0.200377 0.247321 0.248771 0.189158 0.306979 0.142106C0.365606 0.0902005 0.434263 0.0510487 0.50864 0.0271081C0.583018 0.00316741 0.661511 -0.00504506 0.739192 0.00298564C0.816873 0.0110163 0.892066 0.035117 0.960052 0.0737752C1.02804 0.112433 1.08735 0.164814 1.13426 0.227631L3.8711 3.64862C3.95444 3.75064 4 3.87861 4 4.01067C4 4.14273 3.95444 4.2707 3.8711 4.37272L1.03794 7.79371C0.981092 7.86271 0.908884 7.91725 0.82717 7.95292C0.745456 7.98858 0.656538 8.00436 0.56763 7.99897Z" fill="#DD0A6A"/>
</svg>
