<svg width="12" height="11" viewBox="0 0 12 11" fill="none" xmlns="http://www.w3.org/2000/svg">
<path d="M11.2632 3.76139L10.4424 1.25339C10.3233 0.888239 10.0943 0.570595 9.78787 0.345588C9.48143 0.120582 9.11317 -0.000341126 8.7354 7.22807e-07H3.2646C2.88683 -0.000341126 2.51857 0.120582 2.21213 0.345588C1.90569 0.570595 1.67667 0.888239 1.5576 1.25339L0.7368 3.76139C0.518533 3.85441 0.332136 4.01107 0.20104 4.21168C0.0699439 4.4123 -2.8854e-07 4.6479 0 4.88889V7.94444C0 8.39544 0.2424 8.78533 0.6 8.99739V10.3889C0.6 10.551 0.663214 10.7064 0.775736 10.821C0.888258 10.9356 1.04087 11 1.2 11H1.8C1.95913 11 2.11174 10.9356 2.22426 10.821C2.33679 10.7064 2.4 10.551 2.4 10.3889V9.16667H9.6V10.3889C9.6 10.551 9.66321 10.7064 9.77574 10.821C9.88826 10.9356 10.0409 11 10.2 11H10.8C10.9591 11 11.1117 10.9356 11.2243 10.821C11.3368 10.7064 11.4 10.551 11.4 10.3889V8.99739C11.582 8.89106 11.7333 8.73775 11.8387 8.55289C11.944 8.36804 11.9997 8.15818 12 7.94444V4.88889C12 4.6479 11.9301 4.4123 11.799 4.21168C11.6679 4.01107 11.4815 3.85441 11.2632 3.76139ZM3.2646 1.22222H8.7348C8.9934 1.22222 9.2226 1.38967 9.3042 1.64022L9.9678 3.66667H2.0322L2.6952 1.64022C2.73501 1.51849 2.81143 1.4126 2.91363 1.33757C3.01583 1.26255 3.13862 1.22219 3.2646 1.22222ZM2.1 7.33333C1.98177 7.33329 1.86471 7.30954 1.75549 7.26342C1.64628 7.2173 1.54705 7.14972 1.46348 7.06454C1.37991 6.97937 1.31362 6.87826 1.26842 6.76699C1.22321 6.65572 1.19996 6.53647 1.2 6.41606C1.20004 6.29564 1.22337 6.17641 1.26865 6.06517C1.31393 5.95393 1.38028 5.85287 1.4639 5.76775C1.54753 5.68263 1.6468 5.61512 1.75605 5.56907C1.86529 5.52303 1.98237 5.49935 2.1006 5.49939C2.33937 5.49947 2.56834 5.59616 2.73712 5.76818C2.9059 5.9402 3.00068 6.17347 3.0006 6.41667C3.00052 6.65986 2.90559 6.89307 2.7367 7.06497C2.5678 7.23688 2.33877 7.33341 2.1 7.33333ZM9.9 7.33333C9.78177 7.33329 9.66471 7.30954 9.55549 7.26342C9.44628 7.2173 9.34705 7.14972 9.26348 7.06454C9.17991 6.97937 9.11362 6.87826 9.06842 6.76699C9.02321 6.65572 8.99996 6.53647 9 6.41606C9.00004 6.29564 9.02337 6.17641 9.06865 6.06517C9.11393 5.95393 9.18028 5.85287 9.2639 5.76775C9.34753 5.68263 9.4468 5.61512 9.55605 5.56907C9.66529 5.52303 9.78237 5.49935 9.9006 5.49939C10.1394 5.49947 10.3683 5.59616 10.5371 5.76818C10.7059 5.9402 10.8007 6.17347 10.8006 6.41667C10.8005 6.65986 10.7056 6.89307 10.5367 7.06497C10.3678 7.23688 10.1388 7.33341 9.9 7.33333Z" fill="#555555"/>
</svg>
