<svg width="10" height="12" viewBox="0 0 10 12" fill="none" xmlns="http://www.w3.org/2000/svg">
<path d="M0.411244 10.5112L0.979401 11.7938C1.85766 11.5203 3.28847 11.1341 3.7183 11.1341C4.34149 11.1341 4.80553 11.2788 5.34246 11.4458C5.91879 11.626 6.57247 11.8299 7.4366 11.8299C8.31189 11.8299 9.72559 11.189 10 11.061L9.33442 9.81607C8.79824 10.0666 7.82405 10.4382 7.4366 10.4382C6.81342 10.4382 6.34937 10.2934 5.81245 10.1264C5.23611 9.9462 4.58243 9.7423 3.7183 9.7423C3.548 9.7423 3.32714 9.76805 3.08098 9.8112C3.49669 9.01163 3.7183 8.04506 3.7183 6.95879H5.94928V5.56703H3.44017C3.40894 5.49257 3.37771 5.41672 3.34722 5.34644C3.15535 4.90734 2.97464 4.4919 2.97464 3.47939C2.97464 2.52674 3.36209 1.39176 5.20562 1.39176C6.85952 1.39176 7.45222 2.94148 7.47527 3.00341L8.88525 2.56292C8.84807 2.45854 7.94155 0 5.20562 0C2.46375 0 1.48732 1.79746 1.48732 3.47939C1.48732 4.51695 1.66134 5.11471 1.84279 5.56703H0V6.95879H2.23098C2.23098 8.67552 1.56764 9.97055 0.411244 10.5112Z" fill="#222222"/>
</svg>
