<svg width="11" height="16" viewBox="0 0 11 16" fill="none" xmlns="http://www.w3.org/2000/svg">
<path d="M6.1875 10.6216C7.57559 10.4521 8.84486 9.77612 9.73693 8.73132C10.629 7.68652 11.0768 6.35143 10.9892 4.99783C10.9016 3.64423 10.2851 2.37388 9.26534 1.44537C8.24555 0.516862 6.89907 0 5.5 0C4.10093 0 2.75445 0.516862 1.73466 1.44537C0.714865 2.37388 0.0984165 3.64423 0.0108029 4.99783C-0.0768106 6.35143 0.370997 7.68652 1.26307 8.73132C2.15514 9.77612 3.42441 10.4521 4.8125 10.6216V12.0012H1.37501V13.3341H4.8125V16H6.1875V13.3341H9.62499V12.0012H6.1875V10.6216ZM1.37501 5.33656C1.37501 4.54567 1.61693 3.77254 2.07019 3.11495C2.52345 2.45735 3.16769 1.94481 3.92143 1.64215C4.67518 1.3395 5.50458 1.26031 6.30475 1.4146C7.10492 1.56889 7.83992 1.94974 8.41681 2.50898C8.9937 3.06822 9.38657 3.78074 9.54573 4.55643C9.7049 5.33212 9.62321 6.13614 9.311 6.86683C8.99879 7.59751 8.47008 8.22204 7.79172 8.66143C7.11337 9.10082 6.31585 9.33535 5.5 9.33535C4.40637 9.33411 3.35791 8.91242 2.5846 8.16277C1.81128 7.41311 1.37628 6.39672 1.37501 5.33656Z" fill="#555555"/>
</svg>
