<svg width="12" height="12" viewBox="0 0 12 12" fill="none" xmlns="http://www.w3.org/2000/svg">
<path d="M1.33333 12H10.6667C11.402 12 12 11.4618 12 10.8V5.40007C12.0001 5.32127 11.9829 5.24323 11.9494 5.17043C11.9158 5.09763 11.8667 5.03151 11.8047 4.97587L6.47133 0.175919C6.40947 0.120152 6.336 0.0759098 6.25513 0.0457236C6.17425 0.0155375 6.08756 0 6 0C5.91244 0 5.82575 0.0155375 5.74487 0.0457236C5.66399 0.0759098 5.59052 0.120152 5.52867 0.175919L0.195334 4.97587C0.133335 5.03151 0.0841625 5.09763 0.0506411 5.17043C0.0171197 5.24323 -9.00938e-05 5.32127 3.54678e-07 5.40007V10.8C3.54678e-07 11.4618 0.598 12 1.33333 12ZM4.66667 10.8V7.80004H7.33333V10.8H4.66667ZM1.33333 5.64846L6 1.44851L10.6667 5.64846L10.6673 10.8H8.66667V7.80004C8.66667 7.13825 8.06867 6.60005 7.33333 6.60005H4.66667C3.93133 6.60005 3.33333 7.13825 3.33333 7.80004V10.8H1.33333V5.64846Z" fill="#555555"/>
</svg>
