<svg width="10" height="5" viewBox="0 0 10 5" fill="none" xmlns="http://www.w3.org/2000/svg">
<path d="M0.00128934 0.709537C0.000964141 0.544043 0.0589599 0.383661 0.165212 0.256231C0.225042 0.18451 0.298524 0.125225 0.381445 0.0817701C0.464366 0.038315 0.555098 0.0115442 0.648445 0.002991C0.741794 -0.00556222 0.835922 0.0042703 0.92544 0.0319252C1.01496 0.05958 1.09811 0.104513 1.17013 0.164153L4.99023 3.3373L8.81745 0.27748C8.89035 0.218645 8.97424 0.174709 9.06428 0.148196C9.15432 0.121684 9.24875 0.113118 9.34213 0.122991C9.43552 0.132864 9.52602 0.160981 9.60843 0.205726C9.69085 0.250472 9.76355 0.310963 9.82237 0.383724C9.88725 0.457008 9.93619 0.542828 9.96611 0.6358C9.99604 0.728772 10.0063 0.826888 9.99627 0.92399C9.98623 1.02109 9.9561 1.11508 9.90778 1.20007C9.85946 1.28505 9.79398 1.35919 9.71546 1.41783L5.43923 4.83887C5.3117 4.94305 5.15174 5 4.98666 5C4.82158 5 4.66162 4.94305 4.53409 4.83887L0.257864 1.29742C0.171614 1.22636 0.103434 1.1361 0.058855 1.03396C0.0142765 0.93182 -0.00544647 0.820672 0.00128934 0.709537Z" fill="#777777"/>
</svg>
