<svg width="88" height="40" viewBox="0 0 88 40" fill="none" xmlns="http://www.w3.org/2000/svg">
<path d="M20.7675 0.382545C19.9202 0.382821 19.0955 0.658705 18.4152 1.16942C17.735 1.68013 17.2353 2.39858 16.9901 3.21856L12.6022 17.9049H12.4509L8.0971 3.22876C7.85233 2.40668 7.35239 1.68608 6.67121 1.1735C5.99004 0.66093 5.16379 0.383607 4.31467 0.382545H3.95269C3.32034 0.381916 2.69709 0.534934 2.13545 0.828714C1.57381 1.12249 1.09021 1.54843 0.725392 2.07065C0.360574 2.59287 0.125216 3.19608 0.0391417 3.82948C-0.0469325 4.46288 0.0187971 5.10792 0.230795 5.71027L5.94166 21.9969C6.41251 23.3417 7.2842 24.5059 8.43666 25.3289C9.58912 26.152 10.9656 26.5935 12.3766 26.5927C13.7876 26.5918 15.1636 26.1487 16.3151 25.3242C17.4666 24.4998 18.3369 23.3347 18.8062 21.9893L24.4931 5.70644C24.7063 5.10401 24.7728 4.45852 24.6869 3.8246C24.6011 3.19069 24.3654 2.58703 23.9999 2.06472C23.6344 1.54241 23.1498 1.11683 22.5871 0.824019C22.0244 0.531204 21.4003 0.379773 20.7675 0.382545Z" fill="#DD0A6A"/>
<path d="M31.9091 -7.27024e-06H31.4803C29.2997 -0.0114839 27.5213 1.81586 27.51 4.08058L27.4103 22.6167C27.3965 25.0089 29.2517 26.96 31.551 26.9714H31.5686C33.8603 26.9714 35.7231 25.0459 35.7307 22.6626L35.8303 4.12904C35.8442 1.86431 34.0848 0.0152949 31.9091 -7.27024e-06Z" fill="#DD0A6A"/>
<path d="M63.8247 4.36877C63.8228 3.41174 63.481 2.48722 62.8615 1.76361C62.242 1.04001 61.3861 0.565452 60.4496 0.426388C59.5131 0.287323 58.5583 0.493002 57.7592 1.00596C56.9601 1.51892 56.3698 2.30503 56.0958 3.2211L51.7105 17.9049H51.5592L47.2029 3.22875C46.9576 2.40694 46.4573 1.68675 45.7759 1.17464C45.0945 0.662541 44.2682 0.385713 43.4192 0.38509H43.0534C42.4219 0.385627 41.7997 0.53939 41.2392 0.833461C40.6786 1.12753 40.1961 1.55332 39.832 2.07507C39.468 2.59681 39.2331 3.19926 39.1471 3.83182C39.0611 4.46438 39.1265 5.10856 39.3378 5.71026L45.0474 21.9969C45.5183 23.3417 46.39 24.5058 47.5424 25.3289C48.6949 26.152 50.0714 26.5935 51.4824 26.5927C52.8934 26.5918 54.2694 26.1487 55.4209 25.3242C56.5724 24.4998 57.4427 23.3346 57.912 21.9893L63.5951 5.70644C63.7467 5.27709 63.8243 4.82464 63.8247 4.36877Z" fill="#DD0A6A"/>
<path d="M87.7515 21.0852L81.9398 4.98213C81.4527 3.63636 80.5684 2.47438 79.4067 1.65344C78.2449 0.832503 76.8618 0.392242 75.4444 0.392242C74.027 0.392242 72.6439 0.832503 71.4821 1.65344C70.3204 2.47438 69.4361 3.63636 68.949 4.98213L63.0616 21.2713C62.9048 21.7075 62.8238 22.1679 62.822 22.632C62.8161 23.5879 63.1523 24.5137 63.7686 25.2388C64.3848 25.9638 65.2395 26.4391 66.1751 26.577C67.1107 26.7149 68.0641 26.5062 68.8595 25.9893C69.6548 25.4724 70.2385 24.6821 70.5029 23.7643L70.7551 22.8934H79.836L80.0656 23.6585C80.2239 24.1804 80.4839 24.6651 80.8301 25.084C81.1763 25.503 81.6017 25.8478 82.0816 26.0982C82.5614 26.3486 83.0858 26.4996 83.6241 26.5423C84.1624 26.5849 84.7038 26.5184 85.2163 26.3466C85.7288 26.1749 86.2023 25.9013 86.6088 25.542C87.0153 25.1827 87.3468 24.7449 87.5836 24.2543C87.8205 23.7637 87.958 23.2301 87.9882 22.6851C88.0183 22.14 87.9404 21.5943 87.7591 21.0801L87.7515 21.0852ZM80.5322 13.0145C80.4313 13.1675 79.1449 14.7488 77.8836 16.2815C77.6768 16.5366 77.4699 16.7814 77.2745 17.025C76.2806 18.2364 75.4444 19.2527 75.4444 19.2527L73.6156 17.025L72.787 16.0125C71.6052 14.5702 70.4587 13.1573 70.3629 13.0145C69.0651 11.0533 70.6025 8.42385 72.9308 8.63426C72.9535 8.63426 72.9749 8.63426 72.9989 8.64319C73.3279 8.67443 73.6471 8.77417 73.9362 8.93612C74.2253 9.09808 74.4781 9.31875 74.6788 9.58427C75.2413 10.2984 75.4003 11.1872 75.4356 11.4346C75.4356 11.4754 75.4431 11.4983 75.4431 11.4983C75.4431 11.4983 75.4431 11.4754 75.4507 11.4346C75.5325 10.8756 75.7252 10.3391 76.017 9.85716C76.189 9.57169 76.4118 9.32092 76.6741 9.11755C77.0291 8.85036 77.4495 8.68633 77.8899 8.64319C77.9114 8.64319 77.9353 8.64319 77.9568 8.63426C80.2812 8.4213 81.8237 11.0571 80.5259 13.0145" fill="#DD0A6A"/>
<path d="M25.2587 33.9288C24.8934 33.9158 24.5356 34.0352 24.2497 34.2655C24.0517 34.4169 23.8872 34.6084 23.7666 34.8278H23.7502C23.6587 34.5639 23.4879 34.3355 23.2619 34.1744C23.0358 34.0132 22.7656 33.9274 22.489 33.9288C22.2001 33.919 21.9142 33.9909 21.6635 34.1364C21.4129 34.2819 21.2073 34.4954 21.0701 34.7526H21.0474L21.0071 34.0334H20.3323C20.355 34.3802 20.3664 34.7551 20.3664 35.1696V38.1803H21.1231V35.7256C21.1225 35.5951 21.1447 35.4656 21.1887 35.343C21.3287 34.986 21.6932 34.5639 22.2267 34.5639C22.8157 34.5639 23.1751 35.0357 23.1751 35.7638V38.1752H23.9319V35.6465C23.9339 35.5156 23.9587 35.3862 24.005 35.2639C24.0834 35.0633 24.2182 34.8902 24.3928 34.7663C24.5675 34.6423 24.7742 34.5728 24.9875 34.5664C25.6181 34.5664 25.9839 35.0255 25.9839 35.9168V38.1778H26.7406V35.8403C26.7406 34.2693 25.8098 33.9276 25.2637 33.9276" fill="#E24795"/>
<path d="M33.7228 37.1704V35.7052C33.7228 34.9082 33.4315 33.9327 32.0328 33.9327C31.5109 33.9234 30.9967 34.0602 30.547 34.328L30.7261 34.838C31.0868 34.6141 31.5023 34.4966 31.9256 34.4988C32.8727 34.4925 32.9522 35.1964 32.9522 35.4591V35.5317C31.1486 35.5139 30.2481 36.0979 30.2481 37.0926C30.2481 37.6473 30.6731 38.2836 31.5951 38.2836C31.8622 38.2898 32.1271 38.234 32.3696 38.1206C32.612 38.0072 32.8256 37.8392 32.9938 37.6294H33.0165L33.0884 38.1803H33.7897C33.7409 37.846 33.7186 37.5083 33.7228 37.1704ZM32.9661 36.7534C32.9655 36.8347 32.9515 36.9153 32.9244 36.9918C32.8292 37.2136 32.6697 37.4009 32.4671 37.5293C32.2645 37.6577 32.0282 37.721 31.7893 37.711C31.3681 37.711 31.0326 37.4713 31.0326 36.9918C31.0326 36.2267 32.0012 36.0495 32.9661 36.0737V36.7534Z" fill="#E24795"/>
<path d="M39.0276 35.7881C38.4462 35.6006 38.1586 35.4489 38.1586 35.0829C38.1586 34.7564 38.4171 34.5001 38.8888 34.5001C39.2193 34.5021 39.5432 34.5932 39.8272 34.7641L40.0177 34.1992C39.6815 34.0138 39.3032 33.9206 38.9204 33.9288C37.9568 33.9288 37.4069 34.5027 37.4069 35.1683C37.4069 35.6784 37.7752 36.0967 38.5836 36.3428C39.1739 36.5264 39.4249 36.7049 39.4249 37.0862C39.4249 37.4241 39.1726 37.7072 38.5647 37.7072C38.1779 37.6958 37.8004 37.5852 37.4674 37.3859L37.2795 37.9776C37.6684 38.1837 38.1017 38.2893 38.5407 38.2849C39.6077 38.2849 40.174 37.7302 40.174 37.0288C40.174 36.3912 39.807 36.0406 39.0225 35.7881" fill="#E24795"/>
<path d="M45.2379 35.7881C44.6552 35.6006 44.3689 35.4489 44.3689 35.0829C44.3689 34.7564 44.6211 34.5001 45.0979 34.5001C45.4287 34.5023 45.753 34.5934 46.0375 34.7641L46.2267 34.1992C45.891 34.0138 45.5131 33.9206 45.1307 33.9288C44.1658 33.9288 43.6172 34.5027 43.6172 35.1683C43.6172 35.6784 43.9842 36.0967 44.7939 36.3428C45.3829 36.5264 45.6339 36.7049 45.6339 37.0862C45.6339 37.4241 45.3817 37.7072 44.7737 37.7072C44.387 37.6958 44.0094 37.5852 43.6765 37.3859L43.4886 37.9776C43.8775 38.1834 44.3108 38.289 44.7498 38.2849C45.818 38.2849 46.3894 37.7302 46.3894 37.0288C46.3894 36.3912 46.0211 36.0406 45.2379 35.7881Z" fill="#E24795"/>
<path d="M53.1143 37.1704V35.7052C53.1143 34.9082 52.8242 33.9327 51.4255 33.9327C50.9036 33.9234 50.3895 34.0602 49.9397 34.328L50.1188 34.838C50.4795 34.6141 50.895 34.4966 51.3183 34.4988C52.2654 34.4925 52.3449 35.1964 52.3449 35.4591V35.5317C50.5413 35.5139 49.6396 36.0979 49.6396 37.0926C49.6396 37.6473 50.0659 38.2836 50.9866 38.2836C51.2538 38.2898 51.5189 38.234 51.7616 38.1207C52.0042 38.0073 52.218 37.8392 52.3865 37.6294H52.4092L52.4811 38.1803H53.1824C53.1332 37.846 53.1104 37.5083 53.1143 37.1704ZM52.3575 36.7534C52.357 36.8347 52.3429 36.9153 52.3159 36.9918C52.2206 37.2136 52.0612 37.4009 51.8586 37.5293C51.656 37.6577 51.4197 37.721 51.1808 37.711C50.7583 37.711 50.424 37.4713 50.424 36.9918C50.424 36.2267 51.3927 36.0495 52.3575 36.0737V36.7534Z" fill="#E24795"/>
<path d="M60.1608 34.0334L60.1305 34.7054H60.1129C59.9111 34.3229 59.4658 33.9288 58.6612 33.9288C57.6005 33.9288 56.6218 34.7768 56.6218 36.1426C56.6218 37.2685 57.4315 38.1663 58.5515 38.1663C59.2804 38.1663 59.7761 37.813 60.0296 37.4012H60.046V37.873C60.046 38.9607 59.4078 39.3879 58.5641 39.3879C58.0854 39.3926 57.6153 39.2599 57.2082 39.0053L57.0102 39.6047C57.381 39.8597 57.9902 39.9936 58.5338 39.9936C59.0774 39.9936 59.7093 39.8814 60.1633 39.4759C60.5972 39.0933 60.8091 38.4634 60.8091 37.5465V35.1148C60.8091 34.6544 60.8204 34.328 60.8431 34.0334H60.1608ZM60.0347 36.3287C60.0346 36.4683 60.0125 36.6069 59.9691 36.7393C59.879 36.9848 59.717 37.1966 59.5047 37.3466C59.2924 37.4965 59.0399 37.5774 58.781 37.5784C57.8452 37.5784 57.4025 36.8286 57.4025 36.1005C57.4025 35.1211 57.9978 34.5243 58.7898 34.5243C59.0553 34.5157 59.3163 34.5951 59.5329 34.7505C59.7495 34.906 59.9098 35.1289 59.9893 35.3851C60.0221 35.4981 60.0374 35.6155 60.0347 35.7332V36.3287Z" fill="#E24795"/>
<path d="M68.3424 35.9219C68.3424 35.2155 67.988 33.9288 66.4834 33.9288C65.1578 33.9288 64.3695 34.9592 64.3695 36.1859C64.3695 37.4126 65.2108 38.2836 66.5641 38.2836C67.0854 38.2963 67.6037 38.1999 68.0864 38.0005L67.9489 37.4471C67.5395 37.6128 67.1008 37.6918 66.6599 37.6792C65.8187 37.6792 65.1301 37.2073 65.1111 36.2764H68.3134C68.3361 36.1623 68.3458 36.046 68.3424 35.9296V35.9219ZM65.1212 35.7052C65.1906 35.1951 65.5526 34.4772 66.4241 34.4772C67.4331 34.4772 67.5995 35.3481 67.5932 35.7052H65.1212Z" fill="#E24795"/>
</svg>
