<svg width="9" height="13" viewBox="0 0 9 13" fill="none" xmlns="http://www.w3.org/2000/svg">
<path d="M4.5 2.62996C3.99142 2.62996 3.49426 2.77071 3.07139 3.03443C2.64852 3.29814 2.31894 3.67297 2.12431 4.11151C1.92969 4.55006 1.87876 5.03262 1.97798 5.49817C2.0772 5.96373 2.32211 6.39136 2.68173 6.72701C3.04135 7.06266 3.49953 7.29123 3.99834 7.38384C4.49715 7.47644 5.01418 7.42892 5.48405 7.24726C5.95391 7.06561 6.35551 6.758 6.63807 6.36332C6.92062 5.96865 7.07143 5.50463 7.07143 5.02995C7.07143 4.39344 6.80051 3.78299 6.31828 3.3329C5.83604 2.88281 5.18199 2.62996 4.5 2.62996ZM4.5 6.59226C4.16894 6.59226 3.84531 6.50063 3.57004 6.32896C3.29476 6.15729 3.08022 5.9133 2.95352 5.62782C2.82683 5.34235 2.79368 5.02822 2.85827 4.72516C2.92286 4.42211 3.08228 4.14373 3.31638 3.92524C3.55048 3.70675 3.84874 3.55795 4.17344 3.49767C4.49815 3.43739 4.83471 3.46833 5.14058 3.58657C5.44644 3.70482 5.70787 3.90507 5.8918 4.16199C6.07573 4.4189 6.1739 4.72096 6.1739 5.02995C6.17271 5.44358 5.99583 5.83988 5.68204 6.13196C5.36825 6.42405 4.94317 6.58807 4.5 6.58807V6.59226Z" fill="#222222"/>
<path d="M4.49809 0.829956C3.30873 0.830915 2.16809 1.28597 1.3253 2.09572C0.482506 2.90548 0.00605231 4.00413 0 5.15172C0 6.87233 1.00042 8.31292 1.73356 9.36296L1.8672 9.55455C2.59663 10.5746 3.37913 11.5584 4.21171 12.502L4.50191 12.83L4.79211 12.502C5.62458 11.5583 6.40708 10.5745 7.13661 9.55455L7.27026 9.35928C7.99958 8.30923 9 6.87233 9 5.15172C8.99394 4.00349 8.51696 2.90428 7.67335 2.09442C6.82973 1.28456 5.68811 0.829941 4.49809 0.829956ZM6.63258 8.93557L6.49512 9.13085C5.83835 10.0814 4.96776 11.1462 4.49809 11.6731C4.04752 11.1462 3.15783 10.0814 2.50106 9.13085L2.36742 8.93557C1.69156 7.9629 0.763683 6.63284 0.763683 5.13699C0.763683 4.66379 0.860276 4.19523 1.04795 3.75806C1.23562 3.32088 1.51069 2.92366 1.85747 2.58906C2.20424 2.25446 2.61592 1.98904 3.06899 1.80796C3.52207 1.62687 4.00768 1.53367 4.49809 1.53367C4.9885 1.53367 5.47411 1.62687 5.92719 1.80796C6.38027 1.98904 6.79194 2.25446 7.13872 2.58906C7.48549 2.92366 7.76056 3.32088 7.94823 3.75806C8.13591 4.19523 8.2325 4.66379 8.2325 5.13699C8.2325 6.64758 7.30844 7.97764 6.63258 8.93557Z" fill="#222222"/>
</svg>
