<svg width="12" height="13" viewBox="0 0 12 13" fill="none" xmlns="http://www.w3.org/2000/svg">
<path d="M0.52345 1.90665L2.12096 0.305486C2.31596 0.109854 2.57696 0 2.85296 0C3.12896 0 3.38996 0.10835 3.58496 0.305486L5.30547 2.02854C5.50047 2.22418 5.60997 2.48753 5.60997 2.76442C5.60997 3.04282 5.50197 3.30316 5.30547 3.50029L3.96146 4.85015C4.26764 5.56584 4.70756 6.2161 5.25747 6.76583C5.80797 7.32112 6.45148 7.75903 7.16548 8.06903L8.50948 6.71918C8.70449 6.52355 8.96549 6.41369 9.24149 6.41369C9.37762 6.41319 9.51249 6.43995 9.63819 6.4924C9.76388 6.54486 9.87788 6.62196 9.97349 6.71918L11.6955 8.44224C11.8905 8.63787 12 8.90122 12 9.17811C12 9.45651 11.892 9.71685 11.6955 9.91398L10.0995 11.5152C9.76649 11.8492 9.30749 12.0403 8.83649 12.0403C8.73899 12.0403 8.64448 12.0328 8.54848 12.0163C6.56248 11.6882 4.59147 10.6273 2.99996 9.03214C1.40995 7.43398 0.353948 5.4566 0.0239468 3.46267C-0.0705538 2.89685 0.118447 2.31447 0.52345 1.90665ZM1.08745 3.28359C1.37995 5.05782 2.33096 6.82753 3.76346 8.26466C5.19597 9.7018 6.95848 10.6559 8.72699 10.9493C8.94899 10.9869 9.17699 10.9117 9.33899 10.7507L10.9065 9.17811L9.24449 7.50923L7.44748 9.31505L7.43398 9.3286L7.10998 9.20821C6.12758 8.84585 5.23547 8.27351 4.49548 7.53087C3.75549 6.78822 3.18531 5.89303 2.82446 4.90733L2.70446 4.58228L4.51647 2.76592L2.85446 1.09704L1.28695 2.66961C1.12495 2.83214 1.04995 3.06088 1.08745 3.28359Z" fill="black"/>
</svg>
