<svg width="18" height="10" viewBox="0 0 18 10" fill="none" xmlns="http://www.w3.org/2000/svg">
<path d="M16.9826 0.712484C17.0992 0.324984 16.9826 0.0408173 16.4309 0.0408173H14.6034C14.1384 0.0408173 13.9259 0.286651 13.8092 0.556651C13.8092 0.556651 12.8801 2.82248 11.5634 4.29165C11.1384 4.71915 10.9442 4.85415 10.7126 4.85415C10.5967 4.85415 10.4284 4.71915 10.4284 4.33165V0.712484C10.4284 0.247484 10.2942 0.0408173 9.90675 0.0408173H7.03508C6.74508 0.0408173 6.57008 0.255817 6.57008 0.460817C6.57008 0.900817 7.22841 1.00248 7.29591 2.24248V4.93248C7.29591 5.52165 7.19008 5.62915 6.95675 5.62915C6.33758 5.62915 4.83091 3.35498 3.93675 0.751651C3.76258 0.245817 3.58675 0.0416509 3.12008 0.0416509H1.29341C0.770915 0.0416509 0.666748 0.287484 0.666748 0.557484C0.666748 1.04248 1.28591 3.44248 3.55091 6.61665C5.06091 8.78415 7.18675 9.95915 9.12341 9.95915C10.2842 9.95915 10.4276 9.69832 10.4276 9.24832V7.60998C10.4276 7.08832 10.5384 6.98332 10.9059 6.98332C11.1759 6.98332 11.6409 7.11998 12.7251 8.16415C13.9634 9.40248 14.1684 9.95832 14.8642 9.95832H16.6909C17.2126 9.95832 17.4734 9.69748 17.3234 9.18248C17.1592 8.66998 16.5676 7.92415 15.7826 7.04165C15.3559 6.53832 14.7184 5.99665 14.5242 5.72582C14.2534 5.37665 14.3317 5.22248 14.5242 4.91248C14.5251 4.91332 16.7509 1.77832 16.9826 0.712484Z" fill="white"/>
</svg>
