<svg width="20" height="14" viewBox="0 0 20 14" fill="none" xmlns="http://www.w3.org/2000/svg">
<path d="M19.5801 2.16946C19.464 1.75429 19.2426 1.37614 18.9374 1.07164C18.6323 0.767128 18.2537 0.546574 17.8382 0.43133C16.2789 0.0144547 10.0101 0.0144548 10.0101 0.0144548C10.0101 0.0144548 3.75324 0.00445472 2.17761 0.43133C1.76286 0.54708 1.38498 0.767865 1.0805 1.07235C0.776021 1.37683 0.555236 1.7547 0.439486 2.16946C0.143361 3.76584 -0.00248562 5.38647 0.0038606 7.01008C0.000971165 8.62588 0.146794 10.2385 0.439486 11.8276C0.55561 12.2426 0.776461 12.6207 1.08084 12.9257C1.38521 13.2308 1.76289 13.4524 2.17761 13.5695C3.73699 13.9863 10.0101 13.9863 10.0101 13.9863C10.0101 13.9863 16.2632 13.9863 17.8382 13.5695C18.2536 13.4529 18.632 13.2315 18.9371 12.9264C19.2422 12.6214 19.4636 12.243 19.5801 11.8276C19.867 10.2395 20.007 8.62446 19.997 7.01008C20.007 5.38508 19.8701 3.76758 19.5801 2.16946ZM8.00761 10.002V4.00508L13.2257 7.01008L8.00761 10.002Z" fill="white"/>
</svg>
